<svg width="73" height="72" viewBox="0 0 73 72" fill="none" xmlns="http://www.w3.org/2000/svg">
<rect x="0.666748" width="72" height="72" rx="36" fill="#12B700"/>
<path d="M30.6667 26L27.6667 30V44C27.6667 44.5304 27.8775 45.0391 28.2525 45.4142C28.6276 45.7893 29.1363 46 29.6667 46H43.6667C44.1972 46 44.7059 45.7893 45.081 45.4142C45.456 45.0391 45.6667 44.5304 45.6667 44V30L42.6667 26H30.6667Z" stroke="#FCFCFC" stroke-width="2" stroke-linecap="round" stroke-linejoin="round"/>
<path d="M27.6667 30H45.6667" stroke="#FCFCFC" stroke-width="2" stroke-linecap="round" stroke-linejoin="round"/>
<path d="M40.6667 34C40.6667 35.0609 40.2453 36.0783 39.4952 36.8284C38.745 37.5786 37.7276 38 36.6667 38C35.6059 38 34.5885 37.5786 33.8383 36.8284C33.0882 36.0783 32.6667 35.0609 32.6667 34" stroke="#FCFCFC" stroke-width="2" stroke-linecap="round" stroke-linejoin="round"/>
</svg>
