<svg width="73" height="73" viewBox="0 0 73 73" fill="none" xmlns="http://www.w3.org/2000/svg">
<rect x="0.333252" y="0.5" width="72" height="72" rx="36" fill="#12B700"/>
<path d="M36.3283 26.8406L41.9883 32.5006C43.1076 33.6192 43.87 35.0447 44.1792 36.5967C44.4883 38.1487 44.3301 39.7575 43.7248 41.2196C43.1194 42.6817 42.0941 43.9315 40.7784 44.8107C39.4627 45.69 37.9157 46.1593 36.3333 46.1593C34.7508 46.1593 33.2039 45.69 31.8881 44.8107C30.5724 43.9315 29.5471 42.6817 28.9417 41.2196C28.3364 39.7575 28.1783 38.1487 28.4874 36.5967C28.7965 35.0447 29.5589 33.6192 30.6783 32.5006L36.3283 26.8406Z" stroke="#FCFCFC" stroke-width="2" stroke-linecap="round" stroke-linejoin="round"/>
</svg>
